<?xml version="1.0" standalone="no"?>
<!DOCTYPE svg PUBLIC "-//W3C//DTD SVG 20010904//EN"
 "http://www.w3.org/TR/2001/REC-SVG-20010904/DTD/svg10.dtd">
<svg version="1.0" xmlns="http://www.w3.org/2000/svg"
 width="225.000000pt" height="225.000000pt" viewBox="0 0 225.000000 225.000000"
 preserveAspectRatio="xMidYMid meet">

<g transform="translate(0.000000,225.000000) scale(0.100000,-0.100000)"
fill="#000000" stroke="none">
<path d="M505 1801 c-11 -5 -29 -19 -40 -31 -20 -22 -20 -36 -20 -646 l0 -624
28 -27 27 -28 625 0 625 0 27 28 28 27 0 625 0 625 -28 27 -27 28 -613 2
c-336 1 -621 -2 -632 -6z m315 -208 c54 -50 56 -124 5 -175 -60 -61 -157 -38
-190 44 -13 32 -14 47 -5 74 27 82 129 112 190 57z m666 -303 c23 -10 53 -33
67 -52 47 -61 57 -129 57 -375 l0 -223 -105 0 -105 0 0 200 c0 213 -8 257 -48
279 -30 16 -94 13 -121 -5 -44 -31 -51 -69 -51 -279 l0 -195 -105 0 -105 0 0
330 0 330 100 0 100 0 0 -42 0 -42 33 31 c77 73 178 88 283 43z m-636 -320 l0
-330 -105 0 -105 0 0 330 0 330 105 0 105 0 0 -330z"/>
</g>
</svg>
