<?xml version="1.0" standalone="no"?>
<!DOCTYPE svg PUBLIC "-//W3C//DTD SVG 20010904//EN"
 "http://www.w3.org/TR/2001/REC-SVG-20010904/DTD/svg10.dtd">
<svg version="1.0" xmlns="http://www.w3.org/2000/svg"
 width="287.000000pt" height="85.000000pt" viewBox="0 0 287.000000 85.000000"
 preserveAspectRatio="xMidYMid meet">

<g transform="translate(0.000000,85.000000) scale(0.100000,-0.100000)"
fill="#000000" stroke="none">
<path d="M239 743 c-13 -16 -12 -17 4 -4 9 7 17 15 17 17 0 8 -8 3 -21 -13z"/>
<path d="M206 723 c-6 -14 -5 -15 5 -6 7 7 10 15 7 18 -3 3 -9 -2 -12 -12z"/>
<path d="M1757 703 c-4 -3 -7 -30 -7 -60 0 -46 -2 -53 -20 -53 -11 0 -20 -7
-20 -15 0 -8 9 -15 20 -15 19 0 20 -7 21 -117 1 -158 12 -189 70 -202 43 -10
59 -4 59 20 0 14 -7 19 -30 19 -44 0 -51 24 -48 157 l3 118 38 3 c53 5 51 32
-3 32 l-40 0 0 60 c0 52 -3 60 -18 60 -10 0 -22 -3 -25 -7z"/>
<path d="M670 650 c-9 -6 -10 -10 -3 -10 6 0 15 5 18 10 8 12 4 12 -15 0z"/>
<path d="M1080 582 c-49 -24 -80 -88 -80 -167 0 -112 61 -185 154 -185 45 0
126 35 126 55 0 22 -32 27 -52 8 -14 -12 -36 -18 -70 -18 -43 0 -53 4 -79 33
-18 20 -29 43 -29 62 l0 30 120 0 120 0 0 49 c0 82 -66 151 -145 151 -16 0
-46 -8 -65 -18z m104 -32 c28 -10 50 -41 60 -82 l6 -28 -100 0 c-97 0 -100 1
-100 23 0 33 22 70 50 84 30 15 51 16 84 3z"/>
<path d="M1457 581 c-29 -15 -37 -16 -37 -5 0 8 -10 14 -25 14 l-25 0 2 -177
c3 -177 3 -178 26 -179 22 -1 22 0 22 130 0 145 6 164 59 186 38 15 95 -2 113
-33 8 -14 14 -70 15 -147 1 -69 2 -128 3 -132 0 -3 9 -4 20 -1 19 5 20 14 20
140 0 153 -10 186 -65 209 -46 19 -84 18 -128 -5z"/>
<path d="M2001 583 c-66 -35 -96 -109 -84 -206 11 -88 73 -147 156 -147 69 0
143 44 114 68 -10 9 -23 7 -52 -8 -47 -24 -64 -25 -111 -5 -23 10 -39 26 -49
49 -28 66 -29 66 110 66 l125 0 0 38 c-1 49 -32 116 -64 137 -39 26 -105 29
-145 8z m108 -37 c28 -15 51 -53 51 -86 0 -19 -7 -20 -101 -20 l-101 0 7 33
c8 40 57 87 91 87 14 0 37 -6 53 -14z"/>
<path d="M2375 580 c-47 -24 -45 -24 -45 -5 0 8 -9 15 -20 15 -19 0 -20 -7
-20 -174 0 -147 2 -175 15 -180 22 -8 23 2 27 141 3 111 5 123 26 146 31 33
67 41 102 23 26 -12 30 -12 44 3 22 24 21 27 -15 40 -45 16 -69 14 -114 -9z"/>
<path d="M2625 593 c-11 -2 -31 -12 -45 -23 -20 -15 -22 -21 -11 -33 11 -14
17 -14 52 5 79 41 159 6 159 -68 l0 -34 -72 0 c-85 0 -136 -21 -156 -63 -18
-38 -8 -88 23 -117 36 -34 122 -40 170 -12 33 20 35 21 35 3 0 -13 6 -18 18
-16 9 2 21 4 25 4 16 2 3 283 -13 308 -27 41 -110 62 -185 46z m155 -233 c0
-66 -50 -99 -128 -86 -41 6 -62 28 -62 65 0 47 25 61 112 61 l78 0 0 -40z"/>
<path d="M69 553 c-13 -16 -12 -17 4 -4 9 7 17 15 17 17 0 8 -8 3 -21 -13z"/>
<path d="M694 545 c11 -29 18 -65 13 -65 -2 0 -20 6 -38 14 -79 33 -252 25
-391 -17 -34 -11 -48 -12 -51 -3 -10 27 -98 -89 -137 -180 l-21 -47 71 66 c81
77 141 110 228 127 109 22 242 -19 357 -110 61 -48 68 -41 69 70 1 120 -4 130
-83 155 -20 6 -23 4 -17 -10z"/>
<path d="M45 509 c-4 -6 -5 -12 -2 -15 2 -3 7 2 10 11 7 17 1 20 -8 4z"/>
<path d="M359 400 c-94 -16 -178 -80 -225 -172 -19 -38 -22 -52 -13 -65 19
-30 95 -83 151 -106 106 -42 276 -22 358 43 l25 20 -35 -10 c-92 -26 -210 0
-259 55 -48 55 -39 126 25 210 14 19 25 34 23 34 -2 -1 -25 -5 -50 -9z"/>
</g>
</svg>
